<?xml version="1.0" encoding="UTF-8" standalone="no"?>
<!-- Generator: Adobe Illustrator 19.0.0, SVG Export Plug-In . SVG Version: 6.00 Build 0)  -->

<svg
   xmlns:osb="http://www.openswatchbook.org/uri/2009/osb"
   xmlns:dc="http://purl.org/dc/elements/1.1/"
   xmlns:cc="http://creativecommons.org/ns#"
   xmlns:rdf="http://www.w3.org/1999/02/22-rdf-syntax-ns#"
   xmlns:svg="http://www.w3.org/2000/svg"
   xmlns="http://www.w3.org/2000/svg"
   xmlns:xlink="http://www.w3.org/1999/xlink"
   xmlns:sodipodi="http://sodipodi.sourceforge.net/DTD/sodipodi-0.dtd"
   xmlns:inkscape="http://www.inkscape.org/namespaces/inkscape"
   version="1.1"
   id="Layer_1"
   x="0px"
   y="0px"
   viewBox="0 0 100 100"
   xml:space="preserve"
   sodipodi:docname="MyPlayer.svg"
   inkscape:version="0.92.3 (2405546, 2018-03-11)"
   width="100"
   height="100"><metadata
   id="metadata45"><rdf:RDF><cc:Work
       rdf:about=""><dc:format>image/svg+xml</dc:format><dc:type
         rdf:resource="http://purl.org/dc/dcmitype/StillImage" /><dc:title /></cc:Work></rdf:RDF></metadata><defs
   id="defs43"><linearGradient
   inkscape:collect="always"
   id="linearGradient996"><stop
     style="stop-color:#3c3e52;stop-opacity:1;"
     offset="0"
     id="stop992" /><stop
     style="stop-color:#3c3e52;stop-opacity:0;"
     offset="1"
     id="stop994" /></linearGradient><linearGradient
   id="linearGradient4586"
   osb:paint="solid"><stop
     style="stop-color:#000000;stop-opacity:1;"
     offset="0"
     id="stop4584" /></linearGradient><linearGradient
   inkscape:collect="always"
   xlink:href="#linearGradient996"
   id="linearGradient998"
   x1="28.535804"
   y1="250.2755"
   x2="475.276"
   y2="250.2755"
   gradientUnits="userSpaceOnUse" />
	
	
	
</defs><sodipodi:namedview
   pagecolor="#ffffff"
   bordercolor="#666666"
   borderopacity="1"
   objecttolerance="10"
   gridtolerance="10"
   guidetolerance="10"
   inkscape:pageopacity="0"
   inkscape:pageshadow="2"
   inkscape:window-width="1366"
   inkscape:window-height="703"
   id="namedview41"
   showgrid="false"
   inkscape:object-nodes="false"
   inkscape:snap-nodes="false"
   inkscape:snap-global="false"
   inkscape:zoom="2"
   inkscape:cx="-38.071001"
   inkscape:cy="31.455655"
   inkscape:window-x="0"
   inkscape:window-y="0"
   inkscape:window-maximized="1"
   inkscape:current-layer="Layer_1"
   inkscape:pagecheckerboard="true" />

<g
   id="g10"
   transform="translate(0,-400.55099)">
</g>
<g
   id="g12"
   transform="translate(0,-400.55099)">
</g>
<g
   id="g14"
   transform="translate(0,-400.55099)">
</g>
<g
   id="g16"
   transform="translate(0,-400.55099)">
</g>
<g
   id="g18"
   transform="translate(0,-400.55099)">
</g>
<g
   id="g20"
   transform="translate(0,-400.55099)">
</g>
<g
   id="g22"
   transform="translate(0,-400.55099)">
</g>
<g
   id="g24"
   transform="translate(0,-400.55099)">
</g>
<g
   id="g26"
   transform="translate(0,-400.55099)">
</g>
<g
   id="g28"
   transform="translate(0,-400.55099)">
</g>
<g
   id="g30"
   transform="translate(0,-400.55099)">
</g>
<g
   id="g32"
   transform="translate(0,-400.55099)">
</g>
<g
   id="g34"
   transform="translate(0,-400.55099)">
</g>
<g
   id="g36"
   transform="translate(0,-400.55099)">
</g>
<g
   id="g38"
   transform="translate(0,-400.55099)">
</g>
<rect
   style="opacity:1;fill:#3c3e52;fill-opacity:1;fill-rule:nonzero;stroke:#3c3e52;stroke-width:31.79694939;stroke-linecap:round;stroke-linejoin:round;stroke-miterlimit:7;stroke-dasharray:none;stroke-dashoffset:0;stroke-opacity:1;paint-order:normal"
   id="rect837"
   width="68.203049"
   height="68.203049"
   x="15.898475"
   y="15.898477" /><path
   style="fill:#63d5c4;fill-opacity:1;stroke-width:0.18024302"
   d="M 64.478516,5.0039062 C 52.348775,4.8130385 40.033703,10.421718 33.140625,19.496094 22.1117,34.015095 30.923828,68.953125 30.923828,68.953125 28.642502,67.605674 25.94912,66.796643 23.058594,66.699219 c -0.072,-7.4e-4 -0.145458,-1.89e-4 -0.218618,9.2e-4 -0.124173,0.0019 -0.2475,0.0054 -0.36146,0.0069 C 14.169486,66.987672 7.5,73.209764 7.5,80.839844 c 0,7.630088 6.669471,13.852186 14.978516,14.132812 0.402504,5.79e-4 0.405057,-0.0041 0.580078,-0.0059 8.173632,-0.349929 12.22473,-4.209691 14.978515,-14.126912 C 40.790894,70.922623 35.845056,46.988121 39.660156,36.945312 43.475255,26.902504 49.799517,21.319223 56.339844,19.808594 69.420498,16.787339 83.363685,30.056953 79.820312,56.521484 77.538471,55.173732 74.844393,54.3647 71.953125,54.267578 v -0.01953 c -0.0831,0 -0.163295,0.01053 -0.246094,0.01172 -0.111134,-0.0021 -0.220341,-0.01172 -0.332031,-0.01172 v 0.02539 c -8.309652,0.280019 -14.978516,6.504279 -14.978516,14.134765 0,7.630488 6.668864,13.854746 14.978516,14.134766 v 0.02539 c 0.08867,0 0.170059,-0.01204 0.257812,-0.01367 0.107625,0.002 0.21217,0.01367 0.320313,0.01367 v -0.0332 C 80.1388,82.191241 84.275843,74.722231 86.931641,68.408203 94.21171,51.100193 100.72054,24.897314 84.900391,12.115234 78.967833,7.3219542 71.75636,5.1184269 64.478516,5.0039062 Z"
   id="path6"
   inkscape:connector-curvature="0"
   sodipodi:nodetypes="ssccscscczssccccccscccccsss" /></svg>