<?xml version="1.0" encoding="UTF-8" standalone="no"?>
<!-- Created with Inkscape (http://www.inkscape.org/) -->

<svg
   xmlns:dc="http://purl.org/dc/elements/1.1/"
   xmlns:cc="http://creativecommons.org/ns#"
   xmlns:rdf="http://www.w3.org/1999/02/22-rdf-syntax-ns#"
   xmlns:svg="http://www.w3.org/2000/svg"
   xmlns="http://www.w3.org/2000/svg"
   xmlns:sodipodi="http://sodipodi.sourceforge.net/DTD/sodipodi-0.dtd"
   xmlns:inkscape="http://www.inkscape.org/namespaces/inkscape"
   version="1.1"
   id="svg2"
   width="100"
   height="100"
   viewBox="0 0 100 100"
   sodipodi:docname="play.svg"
   inkscape:version="0.92.3 (2405546, 2018-03-11)">
  <sodipodi:namedview
     pagecolor="#ffffff"
     bordercolor="#666666"
     borderopacity="1"
     objecttolerance="10"
     gridtolerance="10"
     guidetolerance="10"
     inkscape:pageopacity="0"
     inkscape:pageshadow="2"
     inkscape:window-width="1366"
     inkscape:window-height="701"
     id="namedview4"
     showgrid="true"
     inkscape:pagecheckerboard="true"
     showguides="true"
     inkscape:zoom="1.4142136"
     inkscape:cx="-14.604338"
     inkscape:cy="63.093484"
     inkscape:window-x="0"
     inkscape:window-y="0"
     inkscape:window-maximized="1"
     inkscape:current-layer="svg2">
    <inkscape:grid
       id="grid22268"
       type="xygrid" />
  </sodipodi:namedview>
  <metadata
     id="metadata8">
    <rdf:RDF>
      <cc:Work
         rdf:about="">
        <dc:format>image/svg+xml</dc:format>
        <dc:type
           rdf:resource="http://purl.org/dc/dcmitype/StillImage" />
        <dc:title></dc:title>
      </cc:Work>
    </rdf:RDF>
  </metadata>
  <defs
     id="defs6" />
  <path
     style="fill:#000000;stroke-width:2.67000008"
     d=""
     id="path4551"
     inkscape:connector-curvature="0" />
  <path
     style="fill:#000000;stroke-width:2.67000008"
     d=""
     id="path4549"
     inkscape:connector-curvature="0" />
  <path
     style="fill:#000000;stroke-width:2.67000008"
     d=""
     id="path4547"
     inkscape:connector-curvature="0" />
  <path
     style="fill:#000000;stroke-width:2.67000008"
     d=""
     id="path4541"
     inkscape:connector-curvature="0" />
  <path
     inkscape:connector-curvature="0"
     id="path895"
     d=""
     style="fill:#000000;stroke-width:2.66666651" />
  <g
     id="g4588"
     transform="matrix(0.45968202,0,0,0.45968202,-13.966475,66.088668)">
    <g
       transform="translate(105.55624,-155.31804)"
       id="g4577">
      <path
         sodipodi:nodetypes="sssssscsccsccccsscssscs"
         inkscape:connector-curvature="0"
         id="path4579"
         d="M -45.123788,227.55055 C -56.79023,224.50797 -57.77,216.16987 -57.77,119.92804 c 0,-99.273918 0.70461,-104.387572 14.873561,-107.943753 7.739523,-1.942497 11.54288,0.07393 114.621439,60.768864 60.45664,35.598209 66.20446,40.825139 59.55319,54.156209 -2.48706,4.9848 -26.71597,20.63799 -84.72202,54.735 -44.68136,26.26452 -82.52861,47.6143 -84.105002,47.44395 -1.576392,-0.17034 -4.985123,-0.86234 -7.574956,-1.53776 z m 84.390771,-62.39824 c -1.823223,-3.83427 59,-37 69.999997,-45 0.0389,-4.84071 -140.729141,-88.203931 -144.748529,-85.719813 -3.080668,1.903958 -4.129937,168.830303 -1.074691,171.885543 2.550213,2.55022 22,-11 75.823223,-41.16573 z M -26.71394,190.1441 c -3.8423,-8.82606 -2.255459,-142.870195 0.1577,-142.82606 5.589418,0.102234 126.07524,69.67679 126.07524,73.02415 0,2.99647 -70.2462,41.47815 -122.66294,71.22317 -2.376792,1.34876 -2.4123,1.38107 -3.57,-1.42126 z M 25,141.66666 c 16.88775,-9.94826 30.705,-19.76804 30.705,-21.82175 0,-4.61488 -61.51568,-41.04179 -65.329034,-38.685008 -3.044409,1.881549 -3.95875,74.055348 -0.975965,77.038138 2.769951,2.76995 3.076489,2.6276 35.599999,-16.53138 z"
         style="fill:#69d5c5;stroke-width:2.67000008" />
    </g>
    <path
       inkscape:connector-curvature="0"
       id="path4583"
       d="m 69.041076,51.387244 c -1.27965,-0.95325 -1.90558,-13.46115 -2.337438,-46.7088105 -0.540058,-41.5777495 0.936306,-121.0992035 2.33119,-125.5649635 0.169851,-0.54378 0.660852,-0.9887 1.091112,-0.9887 2.478206,0 32.69581,16.42394 64.96077,35.307604 38.03906,22.26307 78.49965,47.77484 80.24329,50.59611 0.55085,0.89129 -0.61095,1.99984 -6.49088,6.19338 -12.773,9.10965 -38.86275,25.0063395 -88.72416,54.06033 -46.353275,27.00982 -49.184618,28.51241 -51.073884,27.10505 z M 89.324,31.674124 c 15.82273,-8.7937 45.88823,-26.7121205 69.77401,-41.5838805 23.95173,-14.9128295 36.72316,-23.6883295 36.72316,-25.2332195 0,-1.20636 -4.46967,-4.57729 -17.23164,-12.99575 -36.83412,-24.297691 -98.120288,-60.832774 -99.58597,-59.367094 -0.963288,0.96329 -1.302277,14.361032 -1.601973,63.314204 -0.207292,33.85977 -0.114833,58.79268 0.246092,66.36206 0.760753,15.95459 0.480085,15.72614 11.676321,9.50368 z"
       style="opacity:1;fill:#fdfdfd;fill-opacity:1;fill-rule:nonzero;stroke:none;stroke-width:0.56497169;stroke-linecap:round;stroke-linejoin:round;stroke-miterlimit:4;stroke-dasharray:none;stroke-dashoffset:0;stroke-opacity:1;paint-order:stroke fill markers" />
  </g>
</svg>
