<?xml version="1.0" encoding="UTF-8" standalone="no"?>
<!-- Created with Inkscape (http://www.inkscape.org/) -->

<svg
   xmlns:osb="http://www.openswatchbook.org/uri/2009/osb"
   xmlns:dc="http://purl.org/dc/elements/1.1/"
   xmlns:cc="http://creativecommons.org/ns#"
   xmlns:rdf="http://www.w3.org/1999/02/22-rdf-syntax-ns#"
   xmlns:svg="http://www.w3.org/2000/svg"
   xmlns="http://www.w3.org/2000/svg"
   xmlns:sodipodi="http://sodipodi.sourceforge.net/DTD/sodipodi-0.dtd"
   xmlns:inkscape="http://www.inkscape.org/namespaces/inkscape"
   version="1.1"
   id="svg869"
   width="100"
   height="100"
   viewBox="0 0 100 100"
   sodipodi:docname="previous.svg"
   inkscape:version="0.92.3 (2405546, 2018-03-11)">
  <metadata
     id="metadata875">
    <rdf:RDF>
      <cc:Work
         rdf:about="">
        <dc:format>image/svg+xml</dc:format>
        <dc:type
           rdf:resource="http://purl.org/dc/dcmitype/StillImage" />
        <dc:title />
      </cc:Work>
    </rdf:RDF>
  </metadata>
  <defs
     id="defs873">
    <linearGradient
       id="linearGradient1066"
       osb:paint="solid">
      <stop
         style="stop-color:#ff0000;stop-opacity:1;"
         offset="0"
         id="stop1064" />
    </linearGradient>
  </defs>
  <sodipodi:namedview
     pagecolor="#ffffff"
     bordercolor="#666666"
     borderopacity="1"
     objecttolerance="10"
     gridtolerance="10"
     guidetolerance="10"
     inkscape:pageopacity="0"
     inkscape:pageshadow="2"
     inkscape:window-width="1366"
     inkscape:window-height="701"
     id="namedview871"
     showgrid="false"
     inkscape:pagecheckerboard="true"
     inkscape:showpageshadow="false"
     inkscape:zoom="4"
     inkscape:cx="12.757031"
     inkscape:cy="42.464567"
     inkscape:window-x="0"
     inkscape:window-y="0"
     inkscape:window-maximized="1"
     inkscape:current-layer="g1047" />
  <g
     transform="matrix(0.87611984,0,0,0.9609375,20.023448,8.392857)"
     id="g1047">
    <path
       style="fill:#000000;fill-opacity:0"
       d="M 0,0.5 V 0 H 0.5 1 1.5 2 2.5 3 3.5 4 4.5 5 5.5 6 6.5 7 7.5 8 8.5 9 9.5 10 10.5 11 11.5 12 12.5 13 13.5 14 14.5 15 15.5 16 16.5 17 17.5 18 18.5 19 19.5 20 20.5 21 21.5 22 22.5 23 23.5 24 24.5 25 25.5 26 26.5 27 27.5 28 28.5 29 29.5 30 30.5 31 31.5 32 32.5 33 33.5 34 34.5 35 35.5 36 36.5 37 37.5 38 38.5 39 39.5 40 40.5 41 41.5 42 42.5 43 43.5 44 44.5 45 45.5 46 46.5 47 47.5 48 48.5 49 49.5 50 50.5 51 51.5 52 52.5 53 53.5 54 54.5 55 55.5 56 56.5 57 57.5 58 58.5 59 59.5 60 60.5 61 61.5 62 62.5 63 63.5 64 64.5 65 65.5 66 66.5 67 67.5 68 68.5 69 69.5 70 70.5 71 71.5 72 72.5 73 73.5 74 74.5 75 75.5 76 76.5 77 77.5 78 78.5 79 79.5 80 80.5 81 81.5 82 82.5 83 83.5 84 84.5 85 85.5 86 86.5 87 87.5 88 88.5 89 89.5 90 90.5 91 91.5 92 92.5 93 93.5 94 94.5 95 95.5 96 V 0.5 1 1.5 2 2.5 3 3.5 4 4.5 5 5.5 6 6.5 7 7.5 8 8.5 9 9.5 10 10.5 11 11.5 12 12.5 13 13.5 14 14.5 15 15.5 16 16.5 17 17.5 18 18.5 19 19.5 20 20.5 21 21.5 22 22.5 23 23.5 24 24.5 25 25.5 26 26.5 27 27.5 28 28.5 29 29.5 30 30.5 31 31.5 32 32.5 33 33.5 34 34.5 35 35.5 36 36.5 37 37.5 38 38.5 39 39.5 40 40.5 41 41.5 42 42.5 43 43.5 44 44.5 45 45.5 46 46.5 47 47.5 48 48.5 49 49.5 50 50.5 51 51.5 52 52.5 53 53.5 54 54.5 55 55.5 56 56.5 57 57.5 58 58.5 59 59.5 60 60.5 61 61.5 62 62.5 63 63.5 64 64.5 65 65.5 66 66.5 67 67.5 68 68.5 69 69.5 70 70.5 71 71.5 72 72.5 73 73.5 74 74.5 75 75.5 76 76.5 77 77.5 78 78.5 79 79.5 80 80.5 81 81.5 82 82.5 83 83.5 84 84.5 85 85.5 86 86.5 87 87.5 88 88.5 89 89.5 90 90.5 91 91.5 92 92.5 93 93.5 94 94.5 95 95.5 96 H 95.5 95 94.5 94 93.5 93 92.5 92 91.5 91 90.5 90 89.5 89 88.5 88 87.5 87 86.5 86 85.5 85 84.5 84 83.5 83 82.5 82 81.5 81 80.5 80 79.5 79 78.5 78 77.5 77 76.5 76 75.5 75 74.5 74 73.5 73 72.5 72 71.5 71 70.5 70 69.5 69 68.5 68 67.5 67 66.5 66 65.5 65 64.5 64 63.5 63 62.5 62 61.5 61 60.5 60 59.5 59 58.5 58 57.5 57 56.5 56 55.5 55 54.5 54 53.5 53 52.5 52 51.5 51 50.5 50 49.5 49 48.5 48 47.5 47 46.5 46 45.5 45 44.5 44 43.5 43 42.5 42 41.5 41 40.5 40 39.5 39 38.5 38 37.5 37 36.5 36 35.5 35 34.5 34 33.5 33 32.5 32 31.5 31 30.5 30 29.5 29 28.5 28 27.5 27 26.5 26 25.5 25 24.5 24 23.5 23 22.5 22 21.5 21 20.5 20 19.5 19 18.5 18 17.5 17 16.5 16 15.5 15 14.5 14 13.5 13 12.5 12 11.5 11 10.5 10 9.5 9 8.5 8 7.5 7 6.5 6 5.5 5 4.5 4 3.5 3 2.5 2 1.5 1 0.5 0 V 95.5 95 94.5 94 93.5 93 92.5 92 91.5 91 90.5 90 89.5 89 88.5 88 87.5 87 86.5 86 85.5 85 84.5 84 83.5 83 82.5 82 81.5 81 80.5 80 79.5 79 78.5 78 77.5 77 76.5 76 75.5 75 74.5 74 73.5 73 72.5 72 71.5 71 70.5 70 69.5 69 68.5 68 67.5 67 66.5 66 65.5 65 64.5 64 63.5 63 62.5 62 61.5 61 60.5 60 59.5 59 58.5 58 57.5 57 56.5 56 55.5 55 54.5 54 53.5 53 52.5 52 51.5 51 50.5 50 49.5 49 48.5 48 47.5 47 46.5 46 45.5 45 44.5 44 43.5 43 42.5 42 41.5 41 40.5 40 39.5 39 38.5 38 37.5 37 36.5 36 35.5 35 34.5 34 33.5 33 32.5 32 31.5 31 30.5 30 29.5 29 28.5 28 27.5 27 26.5 26 25.5 25 24.5 24 23.5 23 22.5 22 21.5 21 20.5 20 19.5 19 18.5 18 17.5 17 16.5 16 15.5 15 14.5 14 13.5 13 12.5 12 11.5 11 10.5 10 9.5 9 8.5 8 7.5 7 6.5 6 5.5 5 4.5 4 3.5 3 2.5 2 1.5 1 0.5 M 64.5,68 q 0.5,0 0.875,-0.125 0.375,-0.125 0.5,-0.5 Q 66,67 66,66.5 q 0,-0.5 0,-1 0,-0.5 0,-1 0,-0.5 0,-1 0,-0.5 0,-1 0,-0.5 0,-1 0,-0.5 0,-1 0,-0.5 0,-1 0,-0.5 0,-1 0,-0.5 0,-1 0,-0.5 0,-1 0,-0.5 0,-1 0,-0.5 0,-1 0,-0.5 0,-1 0,-0.5 0,-1 0,-0.5 0,-1 0,-0.5 0,-1 0,-0.5 0,-1 0,-0.5 0,-1 0,-0.5 0,-1 0,-0.5 0,-1 0,-0.5 0,-1 0,-0.5 0,-1 0,-0.5 0,-1 0,-0.5 0,-1 0,-0.5 0,-1 0,-0.5 0,-1 0,-0.5 0,-1 0,-0.5 0,-1 0,-0.5 0,-1 0,-0.5 0,-1 0,-0.5 0,-1 0,-0.5 0,-1 0,-0.5 0,-1 0,-0.5 0,-1 0,-0.5 0,-1 0,-0.5 0,-1 0,-0.5 0,-1 0,-0.5 -0.125,-0.875 -0.125,-0.375 -0.5,-0.5 Q 65,28 64.5,28 q -0.5,0 -1,0 -0.5,0 -1,0 -0.5,0 -1,0 -0.5,0 -1,0 -0.5,0 -1,0 -0.5,0 -1,0 -0.5,0 -1,0 -0.5,0 -0.875,0.125 -0.375,0.125 -0.5,0.5 Q 56,29 56,29.5 q 0,0.5 0,1 0,0.5 0,1 0,0.5 0,1 0,0.5 0,1 0,0.5 0,1 0,0.5 0,1 0,0.5 0,1 0,0.5 0,1 0,0.5 0,1 0,0.5 0,1 0,0.5 0,1 0,0.5 0,1 0,0.5 0,1 0,0.5 0,1 0,0.5 0,1 Q 56,45 55.5,45 55,45 54.625,44.875 54.25,44.75 54,44.5 53.75,44.25 53.5,44 53.25,43.75 53,43.5 52.75,43.25 52.375,43.125 L 52,43 51.625,42.875 Q 51.25,42.75 51,42.5 50.75,42.25 50.5,42 50.25,41.75 50,41.5 49.75,41.25 49.375,41.125 49,41 48.875,40.625 48.75,40.25 48.375,40.125 48,40 47.625,39.875 47.25,39.75 47,39.5 46.75,39.25 46.5,39 46.25,38.75 46,38.5 45.75,38.25 45.375,38.125 L 45,38 44.625,37.875 Q 44.25,37.75 44,37.5 43.75,37.25 43.5,37 43.25,36.75 43,36.5 42.75,36.25 42.375,36.125 42,36 41.875,35.625 41.75,35.25 41.375,35.125 41,35 40.625,34.875 40.25,34.75 40,34.5 39.75,34.25 39.5,34 39.25,33.75 39,33.5 38.75,33.25 38.375,33.125 L 38,33 37.625,32.875 Q 37.25,32.75 37,32.5 36.75,32.25 36.5,32 36.25,31.75 36,31.5 35.75,31.25 35.375,31.125 35,31 34.875,30.625 34.75,30.25 34.375,30.125 34,30 33.625,29.875 33.25,29.75 33,29.5 32.75,29.25 32.5,29 32.25,28.75 32,28.5 31.75,28.25 31.375,28.125 L 31,28 30.625,28.125 q -0.375,0.125 -0.5,0.5 L 30,29 v 0.5 q 0,0.5 0,1 0,0.5 0,1 0,0.5 0,1 0,0.5 0,1 0,0.5 0,1 0,0.5 0,1 0,0.5 0,1 0,0.5 0,1 0,0.5 0,1 0,0.5 0,1 0,0.5 0,1 0,0.5 0,1 0,0.5 0,1 0,0.5 0,1 0,0.5 0,1 0,0.5 0,1 0,0.5 0,1 0,0.5 0,1 0,0.5 0,1 0,0.5 0,1 0,0.5 0,1 0,0.5 0,1 0,0.5 0,1 0,0.5 0,1 0,0.5 0,1 0,0.5 0,1 0,0.5 0,1 0,0.5 0,1 0,0.5 0,1 0,0.5 0,1 0,0.5 0,1 0,0.5 0,1 0,0.5 0,1 0,0.5 0,1 0,0.5 0,1 0,0.5 0,1 0,0.5 0,1 V 67 l 0.125,0.375 q 0.125,0.375 0.5,0.5 L 31,68 31.375,67.875 Q 31.75,67.75 32,67.5 32.25,67.25 32.5,67 32.75,66.75 33,66.5 33.25,66.25 33.625,66.125 34,66 34.375,65.875 34.75,65.75 34.875,65.375 35,65 35.375,64.875 35.75,64.75 36,64.5 36.25,64.25 36.5,64 36.75,63.75 37,63.5 37.25,63.25 37.625,63.125 L 38,63 38.375,62.875 Q 38.75,62.75 39,62.5 39.25,62.25 39.5,62 39.75,61.75 40,61.5 40.25,61.25 40.625,61.125 41,61 41.375,60.875 41.75,60.75 41.875,60.375 42,60 42.375,59.875 42.75,59.75 43,59.5 43.25,59.25 43.5,59 43.75,58.75 44,58.5 44.25,58.25 44.625,58.125 L 45,58 45.375,57.875 Q 45.75,57.75 46,57.5 46.25,57.25 46.5,57 46.75,56.75 47,56.5 47.25,56.25 47.625,56.125 48,56 48.375,55.875 48.75,55.75 48.875,55.375 49,55 49.375,54.875 49.75,54.75 50,54.5 50.25,54.25 50.5,54 50.75,53.75 51,53.5 51.25,53.25 51.625,53.125 L 52,53 52.375,52.875 Q 52.75,52.75 53,52.5 53.25,52.25 53.5,52 53.75,51.75 54,51.5 54.25,51.25 54.625,51.125 55,51 55.5,51 q 0.5,0 0.5,0.5 0,0.5 0,1 0,0.5 0,1 0,0.5 0,1 0,0.5 0,1 0,0.5 0,1 0,0.5 0,1 0,0.5 0,1 0,0.5 0,1 0,0.5 0,1 0,0.5 0,1 0,0.5 0,1 0,0.5 0,1 0,0.5 0,1 0,0.5 0,1 0,0.5 0,1 0,0.5 0.125,0.875 0.125,0.375 0.5,0.5 Q 57,68 57.5,68 q 0.5,0 1,0 0.5,0 1,0 0.5,0 1,0 0.5,0 1,0 0.5,0 1,0 0.5,0 1,0 0.5,0 1,0"
       id="path879"
       inkscape:connector-curvature="0" />
    <path
       style="fill:#63d5c4;fill-opacity:1;stroke:#63d5c4;stroke-width:3.38712001;stroke-linecap:round;stroke-linejoin:round;stroke-miterlimit:4;stroke-dasharray:none;stroke-opacity:1"
       d="m 13.016543,-5.4673771 c -0.217751,-0.6292375 -0.653262,-1.0487293 -1.306523,-1.2584743 -0.653262,-0.209737 -1.415389,-0.314619 -2.2864005,-0.314619 h -18.291235 c -0.8710021,0 -1.6331295,0.104882 -2.2863915,0.314619 -0.653271,0.209737 -1.088772,0.6292368 -1.306523,1.2584743 -0.21775,0.6292366 -0.326636,1.3633477 -0.326636,2.2023288 v 2.516948 88.0931783 2.516951 c 0,0.838981 0.108886,1.573092 0.326636,2.202329 0.217741,0.629235 0.653252,1.048728 1.306523,1.258474 0.653262,0.209737 1.4153894,0.314619 2.2863915,0.314619 h 18.291235 c 0.8710115,0 1.6331385,-0.104885 2.2864005,-0.314619 0.653261,-0.209763 1.088772,-0.629239 1.306523,-1.258474 0.21775,-0.629237 0.326636,-1.363348 0.326636,-2.202329 v -2.516951 -2.516945 l 7.03e-4,-38.068839 c 0,0 42.545236,26.805413 67.938129,44.361206 0,-31.881343 0,-63.762679 0,-95.6440223 L 13.343882,39.837687 c 0.002,-27.050516 -7.03e-4,-40.5858126 -7.03e-4,-40.5858126 l 7.03e-4,-2.516948 c 2.41e-4,-0.838981 -0.109568,-1.5730921 -0.327339,-2.2023286"
       id="path885"
       inkscape:connector-curvature="0"
       sodipodi:nodetypes="csccsssccsssccssscccccccsc" />
  </g>
</svg>
